<?xml version="1.0" encoding="UTF-8" standalone="no"?>
<!-- Created with Inkscape (http://www.inkscape.org/) -->

<svg
   version="1.1"
   id="svg2"
   xml:space="preserve"
   width="2666.6667"
   height="2666.6667"
   viewBox="0 0 2666.6667 2666.6667"
   sodipodi:docname="11082021-09.eps"
   xmlns:inkscape="http://www.inkscape.org/namespaces/inkscape"
   xmlns:sodipodi="http://sodipodi.sourceforge.net/DTD/sodipodi-0.dtd"
   xmlns="http://www.w3.org/2000/svg"
   xmlns:svg="http://www.w3.org/2000/svg"><defs
     id="defs6" /><sodipodi:namedview
     id="namedview4"
     pagecolor="#ffffff"
     bordercolor="#666666"
     borderopacity="1.0"
     inkscape:pageshadow="2"
     inkscape:pageopacity="0.0"
     inkscape:pagecheckerboard="0" /><g
     id="g8"
     inkscape:groupmode="layer"
     inkscape:label="ink_ext_XXXXXX"
     transform="matrix(1.3333333,0,0,-1.3333333,0,2666.6667)"><g
       id="g10"
       transform="scale(0.1)"><path
         d="M 20000,0 H 0 V 20000 H 20000 V 0"
         style="fill:#2c2829;fill-opacity:1;fill-rule:nonzero;stroke:none"
         id="path12" /><path
         d="m 10671.1,10566.4 c 161.8,0.1 64.4,218.7 521.7,124.3 0,0 -383.5,230 -739,230 -221.3,0 -305.8,-126.4 -305.8,-126.4 0,0 99.8,2.5 195.1,-50.7 108,-60.3 218.8,-177.3 328,-177.2"
         style="fill:#f4f4f4;fill-opacity:1;fill-rule:nonzero;stroke:none"
         id="path14" /><path
         d="m 12285.1,10920.7 c -106.2,51 -215.8,105.5 -328.5,163.3 -134.2,68.9 -272,129.8 -410.4,189.2 811.3,298 679,1310.5 -89,1540.1 1000.5,-42.8 1424.8,-1152 827.9,-1892.6 z M 8296.35,9397.6 c -464.98,-94.1 -863.53,-22.2 -1197.24,284.3 393.57,-24.8 686.9,302.6 948.15,504.5 285.42,220.5 521,318.3 521,318.3 -2684.85,899.1 -1590.64,3265.3 -126.88,2773.7 -892.31,68.3 -1395.19,-1058.8 -360.91,-1589.2 316.23,-162.1 759.99,-161.6 963.16,-177.1 74.23,-5.7 97.4,-57.9 97.4,-57.9 572.69,122.5 1183.97,57 1717.77,-183.8 258.1,-116.5 522.1,-217.4 774,-346.7 867.7,-445.3 1446.2,-695.8 1769.2,-543.3 78.5,37.1 163.3,54.1 227.2,-4.8 451,-415 100.3,-1472.7 -500.4,-1825 -285.4,340.7 -1273.1,339.6 -1954,-94.1 -776.8,-494.7 -895.6,-1356.4 -869.1,-1666.1 0,0 315.5,1444.7 1688.3,1444.7 0,0 -467.7,-132.8 -608.9,-564.6 927.4,-154.8 1349.4,-1120.3 2269.5,-1237.8 714.2,838 1145.4,1924.6 1145.4,3112 0,2651 -2149,4800 -4800,4800 -2650.97,0 -4800,-2149 -4800,-4800 0,-1600.1 782.94,-3017.2 1986.57,-3889.4 -584.8,2201.5 1109.78,3742.3 1109.78,3742.3"
         style="fill:#f4f4f4;fill-opacity:1;fill-rule:nonzero;stroke:none"
         id="path16" /><path
         d="m 13638,9829.3 c 0,0 26.8,101.2 0,179.9 -56.7,166.8 -227.4,194.4 -254.6,19.4 0,0 218.7,89.8 254.6,-199.3"
         style="fill:#f4f4f4;fill-opacity:1;fill-rule:nonzero;stroke:none"
         id="path18" /></g></g></svg>
