<?xml version="1.0" encoding="UTF-8" standalone="no"?>
<!-- Created with Inkscape (http://www.inkscape.org/) -->

<svg
   version="1.1"
   id="svg2"
   xml:space="preserve"
   width="2666.6667"
   height="2666.6667"
   viewBox="0 0 2666.6667 2666.6667"
   sodipodi:docname="11082021-04.eps"
   xmlns:inkscape="http://www.inkscape.org/namespaces/inkscape"
   xmlns:sodipodi="http://sodipodi.sourceforge.net/DTD/sodipodi-0.dtd"
   xmlns="http://www.w3.org/2000/svg"
   xmlns:svg="http://www.w3.org/2000/svg"><defs
     id="defs6"><clipPath
       clipPathUnits="userSpaceOnUse"
       id="clipPath20"><path
         d="m 8869.82,15844.5 c 8.34,10.4 16.86,20.7 25.81,30.8 0,0 184.06,148.2 511.58,243.9 -270.94,248.2 -294.29,805.3 98.91,997.6 -508.59,-2.3 -973.53,-652.1 -682.93,-1196.4 14.02,-26.2 29.8,-51.4 46.63,-75.9 z"
         id="path18" /></clipPath><linearGradient
       x1="0"
       y1="0"
       x2="1"
       y2="0"
       gradientUnits="userSpaceOnUse"
       gradientTransform="matrix(4480,5480,5480,-4480,5122.35,11517)"
       spreadMethod="pad"
       id="linearGradient30"><stop
         style="stop-opacity:1;stop-color:#6e1418"
         offset="0"
         id="stop22" /><stop
         style="stop-opacity:1;stop-color:#6e1418"
         offset="0.0855615"
         id="stop24" /><stop
         style="stop-opacity:1;stop-color:#ed1c24"
         offset="0.914438"
         id="stop26" /><stop
         style="stop-opacity:1;stop-color:#ed1c24"
         offset="1"
         id="stop28" /></linearGradient><clipPath
       clipPathUnits="userSpaceOnUse"
       id="clipPath40"><path
         d="m 9545,15207.5 c 0,0 46.28,-218.7 -93.46,-280.4 -127.11,-56 -261.71,54.2 -373.87,0 0,0 235.54,392.6 676.7,426.2 0,0 -179.46,-86 -209.37,-145.8 z M 7738.21,13930.4 c 0,0 193.48,370.1 297.23,179.4 0,0 -154.22,24.1 -297.23,-179.4 z m 4131.89,932.7 c -38.1,54.8 -82.2,105.3 -132.6,149 l -0.8,0.6 c 312.2,-54.2 532.8,246.8 532.8,246.8 -347.7,-123.4 -430,357 -979.5,353.3 302.8,78.5 479.9,251.6 538.3,509.7 136.2,601.8 -529,1105.4 -1020.1,973 487.8,-92.3 642.5,-671.4 309.8,-963 -176.6,-154.8 -581.4,-160 -837.3,-138.1 -781.57,67 -1256.09,-315.4 -1256.09,-315.4 -159.3,-178.6 -215.14,-424.6 -332.42,-633.2 -387.57,-689.2 -1002.58,-648.1 -1002.58,-648.1 -407.52,-848.7 276.66,-1211.3 934.67,-1173.9 0,0 -41.13,347.7 443.58,361.2 0,0 128.07,-65.6 309.23,-109.2 233.98,-56.4 556.52,-76.1 806.21,129.3 0,0 -241.14,-448.6 -801.94,-330.9 -64.28,-370 -320.5,-1061.2 -1116,-1138.4 0,0 106.55,-284.5 484.7,-518.1 1368.54,-1027.8 3130.24,-195.5 3638.24,923.2 29.3,172.1 44.8,348.8 44.8,529.1 0,666 -208.3,1284.2 -563,1793.1 z"
         id="path38" /></clipPath><linearGradient
       x1="0"
       y1="0"
       x2="1"
       y2="0"
       gradientUnits="userSpaceOnUse"
       gradientTransform="matrix(4480,5480,5480,-4480,7137.93,9869.2)"
       spreadMethod="pad"
       id="linearGradient50"><stop
         style="stop-opacity:1;stop-color:#6e1418"
         offset="0"
         id="stop42" /><stop
         style="stop-opacity:1;stop-color:#6e1418"
         offset="0.0855615"
         id="stop44" /><stop
         style="stop-opacity:1;stop-color:#ed1c24"
         offset="0.914438"
         id="stop46" /><stop
         style="stop-opacity:1;stop-color:#ed1c24"
         offset="1"
         id="stop48" /></linearGradient><clipPath
       clipPathUnits="userSpaceOnUse"
       id="clipPath60"><path
         d="m 9273.67,7625.7 c 8.34,10.5 16.86,20.8 25.81,30.8 0,0 184.06,148.3 511.58,244 -270.94,248.2 -294.29,805.3 98.9,997.6 -508.58,-2.3 -973.52,-652.1 -682.92,-1196.4 14.02,-26.3 29.8,-51.5 46.63,-76 z"
         id="path58" /></clipPath><linearGradient
       x1="0"
       y1="0"
       x2="1"
       y2="0"
       gradientUnits="userSpaceOnUse"
       gradientTransform="matrix(3300,5440,5440,-3300,6592.57,3343.2)"
       spreadMethod="pad"
       id="linearGradient70"><stop
         style="stop-opacity:1;stop-color:#6e1418"
         offset="0"
         id="stop62" /><stop
         style="stop-opacity:1;stop-color:#6e1418"
         offset="0.0855615"
         id="stop64" /><stop
         style="stop-opacity:1;stop-color:#ed1c24"
         offset="0.914438"
         id="stop66" /><stop
         style="stop-opacity:1;stop-color:#ed1c24"
         offset="1"
         id="stop68" /></linearGradient><clipPath
       clipPathUnits="userSpaceOnUse"
       id="clipPath80"><path
         d="m 9948.85,6988.8 c 0,0 46.28,-218.7 -93.46,-280.4 -127.12,-56.1 -261.71,54.2 -373.87,0 0,0 235.54,392.6 676.68,426.2 0,0 -179.44,-86 -209.35,-145.8 z M 8142.06,5711.7 c 0,0 193.48,370.1 297.23,179.4 0,0 -154.23,24 -297.23,-179.4 z m 5289.14,609.9 c -52.9,-593.6 -266.6,-1141.7 -597.1,-1600.2 1.8,43.1 2.8,86.4 2.8,129.9 0,666 -208.3,1284.2 -562.9,1793.1 -38.2,54.7 -82.3,105.2 -132.7,148.9 l -0.7,0.7 c 312.1,-54.2 532.7,246.8 532.7,246.8 -235.5,-83.6 -440,129.2 -596.6,295.9 l -382.9,57.4 c 302.8,78.5 480,251.6 538.4,509.7 136.2,601.8 -529.1,1105.4 -1020.1,973 487.7,-92.3 642.5,-671.4 309.7,-963.1 -176.5,-154.7 -581.4,-159.9 -837.3,-138 -781.52,67 -1256.03,-315.4 -1256.03,-315.4 C 9269.16,7281.7 9213.32,7035.7 9096.04,6827.1 8708.47,6137.9 8093.46,6179 8093.46,6179 c -407.52,-848.7 276.66,-1211.3 934.67,-1174 0,0 -41.13,347.7 443.58,361.3 0,0 128.08,-65.6 309.23,-109.2 233.96,-56.4 556.56,-76.2 806.26,129.3 0,0 -241.2,-448.6 -801.99,-330.9 -50.71,-639.4 -644.54,-718.1 -1269.66,-831.6 418.4,-411.8 947.86,-711.1 1538.75,-848.2 -1716.62,78.9 -3088.96,1500 -3088.96,3235.8 0,1279.1 745.21,2387.3 1824.19,2913.6 C 7493.08,9034.7 6568.71,7780.6 6568.71,6314.5 c 0,-1892 1539.27,-3431.3 3431.29,-3431.3 1892,0 3431.3,1539.3 3431.3,3431.3 0,2.4 -0.1,4.7 -0.1,7.1 z"
         id="path78" /></clipPath><linearGradient
       x1="0"
       y1="0"
       x2="1"
       y2="0"
       gradientUnits="userSpaceOnUse"
       gradientTransform="matrix(3300,5440,5440,-3300,7765.87,2631.5)"
       spreadMethod="pad"
       id="linearGradient90"><stop
         style="stop-opacity:1;stop-color:#6e1418"
         offset="0"
         id="stop82" /><stop
         style="stop-opacity:1;stop-color:#6e1418"
         offset="0.0855615"
         id="stop84" /><stop
         style="stop-opacity:1;stop-color:#ed1c24"
         offset="0.914438"
         id="stop86" /><stop
         style="stop-opacity:1;stop-color:#ed1c24"
         offset="1"
         id="stop88" /></linearGradient></defs><sodipodi:namedview
     id="namedview4"
     pagecolor="#ffffff"
     bordercolor="#666666"
     borderopacity="1.0"
     inkscape:pageshadow="2"
     inkscape:pageopacity="0.0"
     inkscape:pagecheckerboard="0" /><g
     id="g8"
     inkscape:groupmode="layer"
     inkscape:label="ink_ext_XXXXXX"
     transform="matrix(1.3333333,0,0,-1.3333333,0,2666.6667)"><g
       id="g10"
       transform="scale(0.1)"><path
         d="M 20000,0 H 0 V 20000 H 20000 V 0"
         style="fill:#ffffff;fill-opacity:1;fill-rule:nonzero;stroke:none"
         id="path12" /><g
         id="g14"><g
           id="g16"
           clip-path="url(#clipPath20)"><path
             d="m 8869.82,15844.5 c 8.34,10.4 16.86,20.7 25.81,30.8 0,0 184.06,148.2 511.58,243.9 -270.94,248.2 -294.29,805.3 98.91,997.6 -508.59,-2.3 -973.53,-652.1 -682.93,-1196.4 14.02,-26.2 29.8,-51.4 46.63,-75.9"
             style="fill:url(#linearGradient30);fill-opacity:1;fill-rule:nonzero;stroke:none"
             id="path32" /></g></g><g
         id="g34"><g
           id="g36"
           clip-path="url(#clipPath40)"><path
             d="m 9545,15207.5 c 0,0 46.28,-218.7 -93.46,-280.4 -127.11,-56 -261.71,54.2 -373.87,0 0,0 235.54,392.6 676.7,426.2 0,0 -179.46,-86 -209.37,-145.8 z M 7738.21,13930.4 c 0,0 193.48,370.1 297.23,179.4 0,0 -154.22,24.1 -297.23,-179.4 z m 4131.89,932.7 c -38.1,54.8 -82.2,105.3 -132.6,149 l -0.8,0.6 c 312.2,-54.2 532.8,246.8 532.8,246.8 -347.7,-123.4 -430,357 -979.5,353.3 302.8,78.5 479.9,251.6 538.3,509.7 136.2,601.8 -529,1105.4 -1020.1,973 487.8,-92.3 642.5,-671.4 309.8,-963 -176.6,-154.8 -581.4,-160 -837.3,-138.1 -781.57,67 -1256.09,-315.4 -1256.09,-315.4 -159.3,-178.6 -215.14,-424.6 -332.42,-633.2 -387.57,-689.2 -1002.58,-648.1 -1002.58,-648.1 -407.52,-848.7 276.66,-1211.3 934.67,-1173.9 0,0 -41.13,347.7 443.58,361.2 0,0 128.07,-65.6 309.23,-109.2 233.98,-56.4 556.52,-76.1 806.21,129.3 0,0 -241.14,-448.6 -801.94,-330.9 -64.28,-370 -320.5,-1061.2 -1116,-1138.4 0,0 106.55,-284.5 484.7,-518.1 1368.54,-1027.8 3130.24,-195.5 3638.24,923.2 29.3,172.1 44.8,348.8 44.8,529.1 0,666 -208.3,1284.2 -563,1793.1"
             style="fill:url(#linearGradient50);fill-opacity:1;fill-rule:nonzero;stroke:none"
             id="path52" /></g></g><g
         id="g54"><g
           id="g56"
           clip-path="url(#clipPath60)"><path
             d="m 9273.67,7625.7 c 8.34,10.5 16.86,20.8 25.81,30.8 0,0 184.06,148.3 511.58,244 -270.94,248.2 -294.29,805.3 98.9,997.6 -508.58,-2.3 -973.52,-652.1 -682.92,-1196.4 14.02,-26.3 29.8,-51.5 46.63,-76"
             style="fill:url(#linearGradient70);fill-opacity:1;fill-rule:nonzero;stroke:none"
             id="path72" /></g></g><g
         id="g74"><g
           id="g76"
           clip-path="url(#clipPath80)"><path
             d="m 9948.85,6988.8 c 0,0 46.28,-218.7 -93.46,-280.4 -127.12,-56.1 -261.71,54.2 -373.87,0 0,0 235.54,392.6 676.68,426.2 0,0 -179.44,-86 -209.35,-145.8 z M 8142.06,5711.7 c 0,0 193.48,370.1 297.23,179.4 0,0 -154.23,24 -297.23,-179.4 z m 5289.14,609.9 c -52.9,-593.6 -266.6,-1141.7 -597.1,-1600.2 1.8,43.1 2.8,86.4 2.8,129.9 0,666 -208.3,1284.2 -562.9,1793.1 -38.2,54.7 -82.3,105.2 -132.7,148.9 l -0.7,0.7 c 312.1,-54.2 532.7,246.8 532.7,246.8 -235.5,-83.6 -440,129.2 -596.6,295.9 l -382.9,57.4 c 302.8,78.5 480,251.6 538.4,509.7 136.2,601.8 -529.1,1105.4 -1020.1,973 487.7,-92.3 642.5,-671.4 309.7,-963.1 -176.5,-154.7 -581.4,-159.9 -837.3,-138 -781.52,67 -1256.03,-315.4 -1256.03,-315.4 C 9269.16,7281.7 9213.32,7035.7 9096.04,6827.1 8708.47,6137.9 8093.46,6179 8093.46,6179 c -407.52,-848.7 276.66,-1211.3 934.67,-1174 0,0 -41.13,347.7 443.58,361.3 0,0 128.08,-65.6 309.23,-109.2 233.96,-56.4 556.56,-76.2 806.26,129.3 0,0 -241.2,-448.6 -801.99,-330.9 -50.71,-639.4 -644.54,-718.1 -1269.66,-831.6 418.4,-411.8 947.86,-711.1 1538.75,-848.2 -1716.62,78.9 -3088.96,1500 -3088.96,3235.8 0,1279.1 745.21,2387.3 1824.19,2913.6 C 7493.08,9034.7 6568.71,7780.6 6568.71,6314.5 c 0,-1892 1539.27,-3431.3 3431.29,-3431.3 1892,0 3431.3,1539.3 3431.3,3431.3 0,2.4 -0.1,4.7 -0.1,7.1"
             style="fill:url(#linearGradient90);fill-opacity:1;fill-rule:nonzero;stroke:none"
             id="path92" /></g></g></g></g></svg>
